<svg xmlns="http://www.w3.org/2000/svg" width="24" height="24" viewBox="0 0 24 24">
    <g fill="#332927" fill-rule="evenodd">
        <path d="M16.989 9.891c.513 0 .936.386.993.883l.004.054c.222.051.433.123.633.218.518.243.935.589 1.232 1.032.289.43.453.902.483 1.4.033.551-.387 1.025-.938 1.058-.512.031-.957-.329-1.045-.822l-.014-.116c-.008-.136-.053-.266-.148-.407-.087-.13-.22-.24-.423-.336-.17-.08-.391-.123-.675-.12-.034.005-.068.007-.102.007l-.034-.002c-.305.018-.548.09-.747.215-.2.125-.336.265-.422.425-.085.16-.12.307-.11.458.022.377.133.646.331.85.213.219.566.426 1.062.604l.217.073c.807.254 1.455.59 1.944 1.026l.176.167c.545.562.843 1.285.893 2.125.03.53-.087 1.044-.345 1.521-.257.48-.637.875-1.124 1.177-.26.163-.54.288-.84.374-.001.546-.449.994-1.001.994-.513 0-.936-.386-.993-.883l-.004-.054c-.222-.051-.433-.124-.633-.218-.52-.245-.938-.59-1.233-1.033-.289-.432-.453-.904-.482-1.402-.031-.552.39-1.024.942-1.055.512-.03.956.332 1.042.825l.013.116c.008.133.053.263.15.407.083.127.217.237.422.333.17.08.39.123.673.12.035-.005.069-.007.103-.007l.034.002h.002c.305-.018.547-.09.746-.215.2-.125.333-.263.421-.428.086-.158.12-.304.11-.456-.022-.377-.132-.645-.329-.847-.215-.221-.568-.428-1.063-.606l-.219-.074c-.807-.254-1.456-.59-1.943-1.025l-.176-.167c-.545-.563-.843-1.286-.893-2.126-.03-.527.087-1.041.345-1.521.257-.479.638-.873 1.126-1.177.259-.162.54-.286.838-.372.001-.547.449-.995 1.001-.995z" opacity=".5"/>
        <path d="M18.058 1.5c1.226 0 2.23.952 2.31 2.157l.006.159v4.327c0 .552-.448 1-1 1-.513 0-.935-.386-.993-.884l-.007-.116V3.816c0-.15-.104-.275-.243-.308l-.073-.008h-6.197l.001 3.602c0 1.226-.953 2.23-2.16 2.313l-.158.005H5.5v10.188c0 .15.104.274.243.306l.072.009h6.122c.552 0 1 .448 1 1 0 .513-.386.935-.883.993l-.117.007H5.815c-1.226 0-2.228-.952-2.31-2.157l-.005-.158V8.088c0-.555.199-1.088.556-1.506l.125-.135 4.288-4.27c.39-.39.906-.627 1.452-.67l.183-.007h7.954zM9.861 3.612L6.038 7.42h3.506c.15 0 .277-.105.31-.245l.008-.073v-3.49z"/>
    </g>
</svg>
