<svg xmlns="http://www.w3.org/2000/svg" width="24" height="24" viewBox="0 0 24 24">
    <g fill="#332927" fill-rule="evenodd">
        <path d="M7.73 2.01c.552 0 1 .448 1 1v17.98c0 .552-.448 1-1 1s-1-.448-1-1V3.01c0-.552.448-1 1-1zm9.22 11.3c.513 0 .936.386.993.883l.007.117v.779l.78.001c.513 0 .936.386.993.883l.007.117c0 .513-.386.936-.883.993l-.117.007-.78-.001v.781c0 .513-.386.936-.883.993l-.117.007c-.513 0-.936-.386-.993-.883l-.007-.117v-.781l-.78.001c-.513 0-.936-.386-.993-.883l-.007-.117c0-.513.386-.936.883-.993l.117-.007.78-.001v-.779c0-.473.329-.87.77-.974l.113-.02.117-.006z" opacity=".5"/>
        <path d="M13.123 12.293c2.114-2.112 5.538-2.11 7.65.002 2.112 2.113 2.112 5.537 0 7.65-2.112 2.112-5.536 2.114-7.65.002-.39-.39-.39-1.023 0-1.414.39-.39 1.023-.39 1.414 0 1.332 1.33 3.49 1.33 4.821-.002 1.331-1.332 1.331-3.49 0-4.822-1.33-1.331-3.49-1.332-4.821-.002-.391.39-1.024.39-1.414 0-.39-.391-.39-1.024 0-1.414zM7.768 3.385c.8-.03 1.6.12 2.348.44.732.326 1.36.85 1.808 1.509.405.588.644 1.274.694 1.986.038.551-.377 1.03-.928 1.068-.551.038-1.03-.377-1.068-.928l-.02-.177c-.047-.293-.158-.572-.329-.82-.241-.355-.577-.635-.958-.804-.524-.225-1.095-.316-1.721-.26l-.228.017c-.454.049-.893.198-1.285.438-.388.236-.705.573-.925.989-.187.338-.276.722-.256 1.13.017.667.282 1.304.702 1.746.674.628 1.492 1.08 2.376 1.312 1.217.312 2.338.922 3.31 1.824.798.849 1.25 1.963 1.27 3.09.042.769-.138 1.533-.511 2.186-.387.704-.954 1.294-1.635 1.702-.75.46-1.608.717-2.428.743l-.3.02c-.802.03-1.602-.119-2.343-.439-.73-.318-1.355-.837-1.792-1.485-.409-.587-.653-1.274-.706-1.987-.042-.55.371-1.03.922-1.072.55-.042 1.03.371 1.072.922l.022.177c.048.293.163.574.34.83.233.344.558.615.938.78.522.226 1.093.316 1.72.259l.228-.017c.454-.049.893-.198 1.29-.442.386-.23.702-.56.926-.968.191-.334.281-.716.26-1.136-.013-.668-.273-1.307-.68-1.743-.679-.628-1.504-1.077-2.406-1.308l-.327-.094c-1.084-.339-2.082-.92-2.951-1.732C3.393 10.299 2.93 9.19 2.9 8.048c-.036-.756.138-1.507.495-2.156.381-.719.949-1.322 1.642-1.745.751-.46 1.608-.717 2.43-.743z"/>
    </g>
</svg>
