<svg xmlns="http://www.w3.org/2000/svg" width="144" height="50" viewBox="0 0 144 50">
    <g fill="none" fill-rule="evenodd">
        <rect width="142.886" height="48.367" x=".546" y=".546" fill="#000" stroke="#272727" stroke-width="1.092" rx="6.552"/>
        <path fill="#FFF" d="M55.76 36.162h-2.45l-1.343-4.274h-4.666l-1.279 4.274h-2.386l4.623-14.55h2.856l4.646 14.55zm7.607-10.707c1.221 0 2.241.489 3.057 1.467.818.98 1.226 2.268 1.226 3.865 0 1.784-.476 3.195-1.428 4.23-.852.922-1.91 1.382-3.175 1.382-1.364 0-2.344-.496-2.94-1.49h-.044v5.528h-2.3V29.124c0-1.122-.03-2.273-.086-3.454h2.024l.128 1.663h.043c.768-1.253 1.932-1.878 3.495-1.878zm11.912 0c1.22 0 2.24.489 3.058 1.467.815.98 1.224 2.268 1.224 3.865 0 1.784-.476 3.195-1.429 4.23-.851.922-1.91 1.382-3.173 1.382-1.365 0-2.344-.496-2.94-1.49h-.043v5.528h-2.301V29.124c0-1.122-.03-2.273-.085-3.454h2.023l.128 1.663h.044c.766-1.253 1.93-1.878 3.494-1.878zm31.662.001c1.52 0 2.742.51 3.665 1.533.882.992 1.323 2.272 1.323 3.84 0 1.613-.456 2.937-1.364 3.973-.953 1.066-2.218 1.597-3.795 1.597-1.52 0-2.73-.51-3.631-1.532-.903-1.02-1.354-2.31-1.354-3.863 0-1.626.464-2.958 1.396-3.993.929-1.037 2.183-1.555 3.76-1.555zM89.066 21.4c1.307 0 2.392.23 3.259.69l-.575 1.9c-.81-.445-1.725-.668-2.749-.668-.81 0-1.442.202-1.895.604-.383.36-.575.799-.575 1.318 0 .575.219 1.05.66 1.424.382.346 1.078.72 2.089 1.123 1.235.504 2.143 1.094 2.727 1.77.581.673.872 1.516.872 2.522 0 1.237-.424 2.244-1.276 3.021-.936.85-2.238 1.274-3.912 1.274-1.545 0-2.784-.302-3.722-.906l.533-1.943c1.01.619 2.118.93 3.326.93.867 0 1.541-.2 2.026-.595.482-.396.723-.928.723-1.59 0-.59-.199-1.088-.597-1.491-.396-.404-1.058-.779-1.982-1.125-2.514-.95-3.77-2.342-3.77-4.173 0-1.196.44-2.176 1.322-2.94.878-.764 2.05-1.145 3.516-1.145zm8.884 1.657v2.612h2.536v1.752H97.95v5.093c0 1.296.447 1.943 1.342 1.943.411 0 .753-.036 1.022-.108l.064 1.77c-.453.172-1.05.258-1.79.258-.908 0-1.618-.28-2.13-.842-.511-.562-.768-1.504-.768-2.828v-5.289h-1.51v-1.749h1.51v-1.92l2.26-.692zm27.445 2.38c1.492 0 2.622.56 3.39 1.682.607.89.913 1.993.913 3.302 0 .417-.027.77-.085 1.057h-6.902c.027 1.036.36 1.829 1.001 2.376.582.488 1.334.733 2.258.733 1.022 0 1.955-.165 2.793-.496l.36 1.618c-.98.433-2.136.648-3.471.648-1.606 0-2.867-.478-3.784-1.435-.915-.957-1.374-2.241-1.374-3.853 0-1.582.427-2.9 1.28-3.95.894-1.122 2.101-1.683 3.62-1.683zm-6.563.019c.213 0 .405.015.576.043v2.222c-.228-.042-.471-.064-.726-.064-.81 0-1.435.31-1.875.93-.383.546-.576 1.237-.576 2.071v5.505h-2.3l.022-7.188c0-1.209-.029-2.31-.086-3.303h2.004l.084 2.008h.064c.243-.69.626-1.246 1.15-1.662.513-.375 1.066-.562 1.663-.562zm-11.973 1.706c-.925 0-1.628.418-2.11 1.255-.414.693-.618 1.536-.618 2.533 0 .967.204 1.797.618 2.488.497.838 1.192 1.255 2.09 1.255.878 0 1.567-.426 2.065-1.277.424-.705.637-1.543.637-2.51 0-.967-.203-1.797-.617-2.49-.482-.837-1.172-1.254-2.065-1.254zm-44.238.15c-.568 0-1.083.192-1.544.571-.462.383-.764.882-.906 1.501-.07.289-.107.525-.107.71v1.75c0 .763.231 1.407.693 1.933.462.526 1.062.788 1.8.788.867 0 1.542-.338 2.024-1.014.483-.677.725-1.569.725-2.678 0-1.02-.226-1.863-.682-2.525-.497-.691-1.165-1.037-2.003-1.037zm11.911 0c-.568 0-1.083.192-1.545.571-.462.383-.763.882-.905 1.501-.07.289-.106.525-.106.71v1.75c0 .763.23 1.407.69 1.933.462.525 1.062.788 1.803.788.866 0 1.54-.338 2.023-1.014.484-.677.725-1.569.725-2.678 0-1.02-.227-1.863-.683-2.525-.497-.691-1.163-1.037-2.002-1.037zm-24.908-3.756c.355 1.439.596 2.353.724 2.74l1.215 3.8h-3.856l1.192-3.8c.313-1.207.54-2.121.682-2.74zm75.6 3.496c-.753 0-1.365.316-1.832.95-.383.504-.61 1.109-.681 1.813h4.793c.015-.69-.135-1.287-.447-1.79-.398-.65-1.01-.973-1.834-.973zM54.675 11.146c.747 0 1.347.25 1.801.752.432.488.649 1.117.649 1.887 0 .793-.224 1.442-.67 1.952-.469.523-1.09.785-1.864.785-.747 0-1.342-.25-1.785-.754-.443-.502-.664-1.135-.664-1.898 0-.798.228-1.453.685-1.961.458-.509 1.073-.763 1.848-.763zm24.118 0c.748 0 1.347.25 1.802.752.432.488.649 1.117.649 1.887 0 .793-.224 1.442-.67 1.952-.469.523-1.09.785-1.864.785-.748 0-1.343-.25-1.785-.754-.443-.502-.664-1.135-.664-1.898 0-.798.228-1.453.685-1.961.458-.509 1.073-.763 1.847-.763zm5.855 0c1.33 0 1.996.71 1.996 2.132v1.898c0 .515.025.925.073 1.229h-1.015l-.084-.594h-.032c-.347.473-.842.71-1.486.71-.48 0-.868-.156-1.16-.466-.266-.282-.399-.633-.399-1.05 0-.63.259-1.11.78-1.442.52-.332 1.252-.495 2.194-.488v-.096c0-.679-.352-1.018-1.056-1.018-.502 0-.945.128-1.327.382l-.23-.752c.473-.297 1.057-.445 1.746-.445zm8.456-2.26v6.13c0 .502.013.964.04 1.389H92.14l-.052-.828h-.032c-.32.63-.866.945-1.634.945-.613 0-1.123-.244-1.528-.732-.404-.488-.606-1.12-.606-1.898 0-.834.219-1.51.66-2.026.425-.48.948-.721 1.57-.721.682 0 1.16.232 1.433.7h.021v-2.96h1.132zm7.264 2.26c.746 0 1.347.25 1.8.752.432.488.649 1.117.649 1.887 0 .793-.223 1.442-.67 1.952-.469.523-1.088.785-1.864.785-.746 0-1.34-.25-1.785-.754-.442-.502-.664-1.135-.664-1.898 0-.798.228-1.453.686-1.961.457-.509 1.072-.763 1.848-.763zm14.895-1.179v1.283h1.246v.859h-1.245v2.504c0 .636.222.954.66.954.203 0 .371-.017.504-.054l.029.87c-.223.085-.517.128-.878.128-.447 0-.795-.138-1.046-.414-.253-.275-.378-.739-.378-1.39V12.11h-.744v-.858h.744v-.945l1.108-.339zm11.294 1.169c.732 0 1.288.275 1.663.826.304.438.454.979.454 1.622 0 .205-.016.378-.043.52h-3.391c.015.509.176.897.49 1.166.288.24.658.36 1.111.36.502 0 .96-.08 1.372-.243l.177.796c-.483.212-1.05.318-1.708.318-.787 0-1.408-.235-1.857-.705-.451-.47-.674-1.101-.674-1.893 0-.777.208-1.425.628-1.94.438-.552 1.03-.827 1.778-.827zM46.95 9.203c1.236 0 2.167.272 2.795.817.704.615 1.057 1.495 1.057 2.641 0 1.287-.381 2.256-1.142 2.906-.705.6-1.706.9-3.003.9-.644 0-1.194-.027-1.655-.084V9.352c.601-.099 1.249-.15 1.948-.15zm22.746 1.94c.475 0 .87.155 1.184.466.39.382.586.951.586 1.708v3.088h-1.13v-2.952c0-.91-.342-1.365-1.026-1.365-.336 0-.607.125-.817.375-.208.25-.314.546-.314.884v3.056h-1.131v-3.68c0-.452-.014-.943-.041-1.475h.994l.053.806h.031c.132-.25.328-.457.586-.622.307-.192.65-.29 1.025-.29zm-10.302.108l.576 2.45c.139.58.253 1.131.345 1.654h.02c.085-.43.224-.98.42-1.643l.722-2.46h.922l.692 2.407c.167.587.303 1.153.408 1.697h.03c.077-.53.193-1.095.346-1.697l.617-2.407h1.11v-.001l-1.59 5.154h-1.037l-.66-2.238c-.167-.56-.303-1.115-.408-1.666h-.02c-.099.567-.235 1.121-.41 1.666l-.7 2.238h-1.048l-1.497-5.154h1.162zm15.191-2.365v7.519h-1.13v-7.52h1.13zm32.544 2.256c.474 0 .87.156 1.183.467.392.382.586.951.586 1.708v3.088h-1.13v-2.952c0-.91-.34-1.365-1.026-1.365-.336 0-.606.125-.816.375-.21.25-.314.546-.314.884v3.056h-1.132v-3.68c0-.452-.013-.943-.04-1.475h.993l.053.806h.031c.133-.25.33-.457.586-.622.308-.192.65-.29 1.026-.29zm12.08-2.256v3.106h.022c.356-.565.866-.847 1.528-.847.468 0 .855.155 1.163.466.383.389.575.966.575 1.729v3.065h-1.132v-2.93c0-.924-.34-1.387-1.024-1.387-.524 0-.883.268-1.08.804-.033.112-.052.25-.052.412v3.1h-1.13V8.885h1.13zm-18.883 3.096c-.453 0-.798.206-1.037.617-.203.34-.303.754-.303 1.244 0 .475.101.883.303 1.223.245.411.586.617 1.026.617.432 0 .772-.209 1.016-.628.208-.346.314-.757.314-1.233 0-.475-.101-.883-.303-1.223-.239-.411-.576-.617-1.016-.617zM85.543 13.84c-1.247-.022-1.871.324-1.871 1.038 0 .27.071.47.217.605.146.134.331.2.552.2.249 0 .48-.079.692-.237.213-.16.343-.362.392-.61.012-.056.018-.124.018-.202v-.794zm-6.79-1.857c-.455 0-.8.206-1.037.617-.203.34-.303.754-.303 1.244 0 .475.101.883.303 1.223.245.411.586.617 1.026.617.432 0 .77-.209 1.014-.628.21-.346.314-.757.314-1.233 0-.475-.102-.883-.304-1.223-.236-.411-.575-.617-1.013-.617zm-24.119 0c-.454 0-.8.206-1.037.617-.203.34-.303.754-.303 1.244 0 .475.101.883.303 1.223.245.411.586.617 1.026.617.432 0 .77-.209 1.015-.628.209-.346.314-.757.314-1.233 0-.475-.102-.883-.304-1.223-.237-.411-.575-.617-1.014-.617zm36.141.054c-.422 0-.752.17-.995.51-.24.34-.362.773-.362 1.303 0 .51.115.923.347 1.241.245.34.575.509.989.509.37 0 .668-.141.893-.424.218-.262.325-.577.325-.944v-.86c0-.148-.01-.268-.031-.36-.064-.276-.2-.507-.41-.694-.21-.187-.463-.281-.756-.281zm-43.731-1.931c-.356 0-.66.024-.91.074v5.345c.138.022.393.032.763.032.866 0 1.534-.244 2.004-.731.47-.488.708-1.199.708-2.132 0-.834-.218-1.474-.654-1.92-.436-.445-1.073-.668-1.911-.668zm79.431 1.825c-.369 0-.67.155-.9.466-.188.249-.299.545-.335.891h2.354c.009-.34-.066-.633-.219-.88-.196-.318-.495-.477-.9-.477zM22.682 16.953c1.09 0 3.167-1.526 5.308-1.298.896.027 3.445.359 5.09 2.786-.133.08-3.037 1.809-3.006 5.36.036 4.257 3.678 5.665 3.723 5.68-.022.1-.57 2.031-1.937 3.993-1.14 1.727-2.335 3.415-4.233 3.446-1.844.043-2.465-1.099-4.58-1.099-2.134 0-2.794 1.068-4.563 1.142-1.808.067-3.19-1.844-4.371-3.555-2.363-3.495-4.203-9.848-1.736-14.171 1.195-2.12 3.374-3.486 5.703-3.522 1.81-.037 3.49 1.238 4.602 1.238zm5.331-8.102c.18 1.663-.47 3.301-1.422 4.506-.992 1.185-2.58 2.092-4.127 1.976-.202-1.6.581-3.302 1.459-4.34.991-1.178 2.713-2.08 4.09-2.142z"/>
    </g>
</svg>
