<svg xmlns="http://www.w3.org/2000/svg" width="24" height="24" viewBox="0 0 24 24">
    <g fill="#332927" fill-rule="evenodd">
        <path d="M11.941 3.052h.118c.197.011.39.08.554.208l.094.083 6.08 6.08c.39.39.39 1.024 0 1.414-.36.36-.928.388-1.32.083l-.094-.083L12 5.465l-5.373 5.372c-.36.36-.928.388-1.32.083l-.094-.083c-.36-.36-.388-.928-.083-1.32l.083-.094 6.08-6.08c.18-.18.412-.277.648-.291h.118-.118z" opacity=".5"/>
        <path d="M11 9.32v10.63c0 .552.448 1 1 1s1-.448 1-1V9.32c0-.552-.448-1-1-1s-1 .448-1 1z"/>
    </g>
</svg>
