<svg xmlns="http://www.w3.org/2000/svg" width="24" height="24" viewBox="0 0 24 24">
    <g fill="#332927" fill-rule="evenodd">
        <path d="M7.432 5.696c.655 0 1.281.212 1.796.596.442.331.532.958.201 1.4-.305.408-.862.517-1.294.27l-.105-.068c-.172-.128-.378-.198-.598-.198-.524 0-.905.403-.905.984 0 .328.159.628.417.813l.102.064c.483.267.66.875.393 1.359-.266.483-.874.66-1.358.393-.95-.523-1.554-1.524-1.554-2.629 0-1.66 1.25-2.984 2.905-2.984z" opacity=".5"/>
        <path d="M7.409 2.547c1.364 0 2.504.604 3.713 1.747l.228.22.628.592.317-.316c1.306-1.296 2.62-2.118 3.974-2.205l.239-.008c1.567 0 3.077.602 4.2 1.717 2.3 2.306 2.3 6.048.037 8.341l-4.527 5.055c-.369.41-1.001.446-1.413.077-.41-.368-.446-1-.077-1.412l4.56-5.09c1.527-1.547 1.527-4.031.007-5.555-.739-.734-1.74-1.133-2.787-1.133-.723 0-1.64.528-2.607 1.442l-.194.188-1 1c-.353.353-.905.388-1.298.1l-.094-.079L9.96 5.953c-.975-.968-1.743-1.406-2.551-1.406-1.07 0-2.09.428-2.856 1.22-1.417 1.469-1.4 3.819.032 5.398l.159.167 7.251 8.072.564-.628c.368-.41 1-.446 1.412-.077.411.368.446 1 .078 1.412l-.743.829c-.345.365-.819.563-1.313.56-.423-.003-.834-.154-1.19-.458l-.132-.121-7.375-8.211C.983 10.415.875 6.698 3.115 4.378 4.26 3.193 5.799 2.547 7.409 2.547z"/>
    </g>
</svg>
