<svg xmlns="http://www.w3.org/2000/svg" width="144" height="50" viewBox="0 0 144 50">
    <defs>
        <linearGradient id="prefix__a" x1="62.743%" x2="37.257%" y1="39.428%" y2="67.196%">
            <stop offset="0%" stop-color="#00C3FF"/>
            <stop offset="100%" stop-color="#00DBFF"/>
        </linearGradient>
        <linearGradient id="prefix__b" x1="136.51%" x2="0%" y1="50%" y2="50%">
            <stop offset="0%" stop-color="#FFDC00"/>
            <stop offset="100%" stop-color="#FFBC00"/>
        </linearGradient>
        <linearGradient id="prefix__c" x1="86.243%" x2="-50.14%" y1="30.08%" y2="139.708%">
            <stop offset="0%" stop-color="#FF3742"/>
            <stop offset="100%" stop-color="#E40D64"/>
        </linearGradient>
        <linearGradient id="prefix__d" x1="73.589%" x2="37.484%" y1="80.979%" y2="19.021%">
            <stop offset="0%" stop-color="#00F06C"/>
            <stop offset="100%" stop-color="#00D96D"/>
        </linearGradient>
    </defs>
    <g fill="none" fill-rule="evenodd">
        <rect width="142.908" height="48.33" x=".546" y=".546" fill="#000" stroke="#272727" stroke-width="1.092" rx="6.552"/>
        <g>
            <path fill="url(#prefix__a)" d="M1.376.382C1.102.677.94 1.136.94 1.732v21.24c0 .595.162 1.053.436 1.349l.068.07 11.652-11.899v-.281L1.444.312l-.068.07z" transform="translate(10.286 11.751)"/>
            <path fill="url(#prefix__b)" d="M13.096 12.21V12.493l3.883 3.968.09-.05 4.6-2.672c1.315-.762 1.315-2.01 0-2.773l-4.6-2.67-.089-.05-3.884 3.966z" transform="translate(10.286 11.751)"/>
            <path fill="url(#prefix__c)" d="M1.376 24.32c.226.246.53.378.882.383h.04c.313-.005.662-.108 1.032-.323l13.738-7.971-3.972-4.057-11.72 11.969z" transform="translate(10.286 11.751)"/>
            <path fill="url(#prefix__d)" d="M1.376.382l11.72 11.97 3.972-4.058L3.33.323C2.952.103 2.594 0 2.276 0c-.36 0-.67.133-.9.382" transform="translate(10.286 11.751)"/>
        </g>
        <g>
            <path fill="#FFF" d="M6.724 3.649c0 .879-.261 1.579-.785 2.101-.596.621-1.371.932-2.324.932-.914 0-1.69-.315-2.329-.945-.64-.63-.958-1.412-.958-2.343 0-.933.318-1.714.958-2.344C1.924.42 2.701.105 3.615.105c.452 0 .886.089 1.298.264.412.176.742.41.99.703l-.557.554c-.419-.498-.995-.747-1.731-.747-.667 0-1.243.233-1.729.698-.486.467-.728 1.072-.728 1.817 0 .744.242 1.349.728 1.815.486.467 1.062.699 1.729.699.706 0 1.295-.234 1.767-.703.306-.306.483-.73.53-1.275H3.614v-.757H6.68c.03.165.044.322.044.476" transform="translate(42.612 11.751)"/>
            <path stroke="#FFF" stroke-width=".78" d="M6.724 3.649c0 .879-.261 1.579-.785 2.101-.596.621-1.371.932-2.324.932-.914 0-1.69-.315-2.329-.945-.64-.63-.958-1.412-.958-2.343 0-.933.318-1.714.958-2.344C1.924.42 2.701.105 3.615.105c.452 0 .886.089 1.298.264.412.176.742.41.99.703l-.557.554c-.419-.498-.995-.747-1.731-.747-.667 0-1.243.233-1.729.698-.486.467-.728 1.072-.728 1.817 0 .744.242 1.349.728 1.815.486.467 1.062.699 1.729.699.706 0 1.295-.234 1.767-.703.306-.306.483-.73.53-1.275H3.614v-.757H6.68c.03.165.044.322.044.476z" transform="translate(42.612 11.751)"/>
            <path fill="#FFF" d="M11.585 1.019L8.704 1.019 8.704 3.015 11.301 3.015 11.301 3.771 8.704 3.771 8.704 5.767 11.585 5.767 11.585 6.541 7.891 6.541 7.891 0.246 11.585 0.246z" transform="translate(42.612 11.751)"/>
            <path stroke="#FFF" stroke-width=".78" d="M11.585 1.019L8.704 1.019 8.704 3.015 11.301 3.015 11.301 3.771 8.704 3.771 8.704 5.767 11.585 5.767 11.585 6.541 7.891 6.541 7.891 0.246 11.585 0.246z" transform="translate(42.612 11.751)"/>
            <path fill="#FFF" d="M15.013 6.541L14.2 6.541 14.2 1.019 12.433 1.019 12.433 0.246 16.78 0.246 16.78 1.019 15.013 1.019z" transform="translate(42.612 11.751)"/>
            <path stroke="#FFF" stroke-width=".78" d="M15.013 6.541L14.2 6.541 14.2 1.019 12.433 1.019 12.433 0.246 16.78 0.246 16.78 1.019 15.013 1.019z" transform="translate(42.612 11.751)"/>
            <path fill="#FFF" d="M19.926 6.541L20.739 6.541 20.739 0.246 19.926 0.246z" transform="translate(42.612 11.751)"/>
            <path stroke="#FFF" stroke-width=".78" d="M19.926 6.541L20.739 6.541 20.739 0.246 19.926 0.246z" transform="translate(42.612 11.751)"/>
            <path fill="#FFF" d="M24.345 6.541L23.532 6.541 23.532 1.019 21.765 1.019 21.765 0.246 26.112 0.246 26.112 1.019 24.345 1.019z" transform="translate(42.612 11.751)"/>
            <path stroke="#FFF" stroke-width=".78" d="M24.345 6.541L23.532 6.541 23.532 1.019 21.765 1.019 21.765 0.246 26.112 0.246 26.112 1.019 24.345 1.019z" transform="translate(42.612 11.751)"/>
            <path fill="#FFF" d="M30.304 5.2c.468.473 1.04.708 1.719.708.677 0 1.25-.235 1.719-.708.468-.472.703-1.074.703-1.806 0-.733-.235-1.336-.703-1.807-.469-.472-1.042-.708-1.72-.708-.677 0-1.25.236-1.718.708-.467.471-.702 1.074-.702 1.807 0 .732.235 1.334.702 1.806m4.039.527c-.623.637-1.396.955-2.32.955-.925 0-1.698-.318-2.32-.955-.621-.636-.931-1.413-.931-2.333 0-.92.31-1.699.932-2.335.62-.636 1.394-.954 2.319-.954.92 0 1.69.32 2.315.958.625.64.937 1.416.937 2.33 0 .92-.311 1.698-.932 2.334" transform="translate(42.612 11.751)"/>
            <path stroke="#FFF" stroke-width=".78" d="M30.304 5.2c.468.473 1.04.708 1.719.708.677 0 1.25-.235 1.719-.708.468-.472.703-1.074.703-1.806 0-.733-.235-1.336-.703-1.807-.469-.472-1.042-.708-1.72-.708-.677 0-1.25.236-1.718.708-.467.471-.702 1.074-.702 1.807 0 .732.235 1.334.702 1.806zm4.039.527c-.623.637-1.396.955-2.32.955-.925 0-1.698-.318-2.32-.955-.621-.636-.931-1.413-.931-2.333 0-.92.31-1.699.932-2.335.62-.636 1.394-.954 2.319-.954.92 0 1.69.32 2.315.958.625.64.937 1.416.937 2.33 0 .92-.311 1.698-.932 2.334z" transform="translate(42.612 11.751)"/>
            <path fill="#FFF" d="M36.416 6.541L36.416 0.246 37.405 0.246 40.48 5.142 40.516 5.142 40.48 3.93 40.48 0.246 41.294 0.246 41.294 6.541 40.445 6.541 37.229 1.406 37.193 1.406 37.229 2.62 37.229 6.541z" transform="translate(42.612 11.751)"/>
            <path stroke="#FFF" stroke-width=".78" d="M36.416 6.541L36.416 0.246 37.405 0.246 40.48 5.142 40.516 5.142 40.48 3.93 40.48 0.246 41.294 0.246 41.294 6.541 40.445 6.541 37.229 1.406 37.193 1.406 37.229 2.62 37.229 6.541z" transform="translate(42.612 11.751)"/>
            <path fill="#FFF" d="M69.486 24.378h1.967V11.262h-1.967v13.116zm17.722-8.392l-2.254 5.687h-.069l-2.34-5.687h-2.12l3.511 7.948-2.001 4.421h2.052l5.41-12.369h-2.189zm-11.16 6.902c-.643 0-1.541-.321-1.541-1.114 0-1.012 1.119-1.401 2.086-1.401.863 0 1.271.187 1.797.438-.152 1.216-1.204 2.077-2.341 2.077zm.239-7.19c-1.425 0-2.9.626-3.51 2.009l1.746.726c.374-.726 1.069-.962 1.798-.962 1.017 0 2.053.607 2.069 1.687v.135c-.357-.202-1.12-.505-2.053-.505-1.882 0-3.799 1.029-3.799 2.952 0 1.755 1.544 2.886 3.274 2.886 1.323 0 2.052-.59 2.51-1.283h.068v1.013h1.9v-5.03c0-2.327-1.748-3.627-4.003-3.627zm-12.16 1.885h-2.8v-4.496h2.8c1.47 0 2.306 1.211 2.306 2.248 0 1.016-.836 2.248-2.306 2.248zm-.051-6.322H59.36v13.117h1.967v-4.97h2.748c2.18 0 4.325-1.57 4.325-4.073s-2.145-4.074-4.325-4.074zM38.366 22.89c-1.36 0-2.497-1.132-2.497-2.687 0-1.573 1.138-2.722 2.497-2.722 1.342 0 2.396 1.15 2.396 2.722 0 1.555-1.054 2.687-2.396 2.687zm2.26-6.17h-.069c-.442-.523-1.29-.997-2.36-.997-2.244 0-4.299 1.962-4.299 4.48 0 2.501 2.055 4.445 4.298 4.445 1.07 0 1.92-.473 2.361-1.014h.069v.642c0 1.708-.918 2.62-2.396 2.62-1.205 0-1.953-.862-2.259-1.589l-1.716.71c.492 1.183 1.8 2.637 3.975 2.637 2.311 0 4.264-1.352 4.264-4.649v-8.012h-1.868v.728zm3.228 7.658h1.97V11.262h-1.97v13.116zm4.875-4.327c-.051-1.725 1.343-2.603 2.345-2.603.781 0 1.443.389 1.665.946l-4.01 1.657zm6.116-1.488c-.374-.997-1.513-2.84-3.84-2.84-2.31 0-4.23 1.809-4.23 4.463 0 2.501 1.903 4.462 4.45 4.462 2.057 0 3.246-1.25 3.739-1.977l-1.53-1.015c-.509.744-1.205 1.234-2.208 1.234-1.002 0-1.716-.456-2.174-1.352l5.996-2.468-.203-.507zm-47.778-1.47v1.893h4.554c-.136 1.065-.493 1.842-1.037 2.383-.663.66-1.699 1.387-3.517 1.387-2.803 0-4.994-2.249-4.994-5.038 0-2.788 2.191-5.038 4.994-5.038 1.512 0 2.616.592 3.432 1.354l1.342-1.336c-1.138-1.082-2.65-1.91-4.774-1.91-3.84 0-7.067 3.11-7.067 6.93s3.228 6.93 7.067 6.93c2.072 0 3.636-.676 4.858-1.944 1.258-1.25 1.649-3.008 1.649-4.428 0-.439-.034-.845-.102-1.183H7.067zM18.75 22.89c-1.36 0-2.532-1.115-2.532-2.704 0-1.606 1.173-2.705 2.532-2.705 1.36 0 2.53 1.099 2.53 2.705 0 1.589-1.17 2.704-2.53 2.704zm0-7.167c-2.48 0-4.502 1.877-4.502 4.463 0 2.57 2.022 4.462 4.502 4.462s4.502-1.892 4.502-4.462c0-2.586-2.022-4.463-4.502-4.463zm9.82 7.167c-1.359 0-2.53-1.115-2.53-2.704 0-1.606 1.171-2.705 2.53-2.705 1.36 0 2.531 1.099 2.531 2.705 0 1.589-1.171 2.704-2.53 2.704zm0-7.167c-2.48 0-4.501 1.877-4.501 4.463 0 2.57 2.021 4.462 4.502 4.462 2.48 0 4.502-1.892 4.502-4.462 0-2.586-2.021-4.463-4.502-4.463z" transform="translate(42.612 11.751)"/>
        </g>
    </g>
</svg>
