<svg xmlns="http://www.w3.org/2000/svg" xmlns:xlink="http://www.w3.org/1999/xlink" width="32" height="32" viewBox="0 0 32 32">
    <defs>
        <radialGradient id="prefix__c" cx="20.499%" cy="87.392%" r="110.282%" fx="20.499%" fy="87.392%">
            <stop offset="0%" stop-color="#FAE100"/>
            <stop offset="5.44%" stop-color="#FADC04"/>
            <stop offset="11.67%" stop-color="#FBCE0E"/>
            <stop offset="18.29%" stop-color="#FCB720"/>
            <stop offset="25.14%" stop-color="#FE9838"/>
            <stop offset="30.54%" stop-color="#FF7950"/>
            <stop offset="49.22%" stop-color="#FF1C74"/>
            <stop offset="100%" stop-color="#6C1CD1"/>
        </radialGradient>
        <linearGradient id="prefix__d" x1="36.876%" x2="-154.04%" y1="42.618%" y2="-64.772%">
            <stop offset="0%" stop-color="#A1B5D8" stop-opacity="0"/>
            <stop offset="30.94%" stop-color="#90A2BD" stop-opacity=".31"/>
            <stop offset="75.54%" stop-color="#7C8B9C" stop-opacity=".757"/>
            <stop offset="100%" stop-color="#748290"/>
        </linearGradient>
        <path id="prefix__a" d="M16 0c8.837 0 16 7.163 16 16s-7.163 16-16 16S0 24.837 0 16 7.163 0 16 0z"/>
    </defs>
    <g fill="none" fill-rule="evenodd">
        <mask id="prefix__b" fill="#fff">
            <use xlink:href="#prefix__a"/>
        </mask>
        <g mask="url(#prefix__b)">
            <g fill-rule="nonzero">
                <path fill="url(#prefix__c)" d="M34.597 6.296c-.32-3.002-2.69-5.373-5.693-5.693-7.529-.804-15.08-.804-22.608 0C3.294.923.923 3.294.603 6.296c-.804 7.528-.804 15.08 0 22.608.32 3.002 2.691 5.373 5.693 5.693 7.528.804 15.08.804 22.608 0 3.002-.32 5.373-2.691 5.693-5.693.804-7.529.804-15.08 0-22.608z" transform="translate(-2.133 -.533)"/>
                <path fill="url(#prefix__d)" d="M32.537 7.666c-.281-2.638-2.365-4.722-5.003-5.003-6.616-.706-13.252-.706-19.868 0-2.638.281-4.722 2.365-5.003 5.003-.706 6.616-.706 13.252 0 19.868.281 2.638 2.365 4.722 5.003 5.003 6.616.706 13.252.706 19.868 0 2.638-.281 4.722-2.365 5.003-5.003.706-6.616.706-13.252 0-19.868z" transform="translate(-2.133 -.533)"/>
                <g fill="#FFF">
                    <path d="M.005 5.136c.056-.4.1-.8.171-1.197C.583 1.695 2.172.167 4.445.09c2.735-.094 5.479-.099 8.214 0 2.473.089 4.264 1.92 4.341 4.394.082 2.626.082 5.26 0 7.886-.077 2.474-1.867 4.305-4.34 4.394-2.736.099-5.48.101-8.215-.002C1.97 16.67.262 14.833.096 12.356c-.014-.214-.06-.427-.091-.64v-6.58zm8.53 10.16c1.252 0 2.505.038 3.755-.008 1.96-.072 3.166-1.242 3.212-3.2.057-2.44.057-4.884 0-7.324-.046-1.958-1.252-3.155-3.212-3.196-2.486-.053-4.976-.052-7.462 0-1.945.04-3.154 1.213-3.207 3.15-.067 2.47-.067 4.946 0 7.416.053 1.936 1.262 3.082 3.207 3.154 1.234.046 2.472.009 3.708.009z" transform="translate(-2.133 -.533) translate(9.6 8)"/>
                    <path d="M8.533 4.081c-2.4 0-4.346 1.946-4.346 4.346 0 2.401 1.946 4.347 4.346 4.347 2.401 0 4.347-1.946 4.347-4.347 0-2.4-1.946-4.346-4.347-4.346zm0 7.196c-1.574 0-2.85-1.276-2.85-2.85s1.276-2.85 2.85-2.85 2.85 1.276 2.85 2.85-1.276 2.85-2.85 2.85zM14.168 3.883c0 .57-.463 1.034-1.034 1.034S12.1 4.454 12.1 3.883c0-.572.463-1.035 1.034-1.035.57 0 1.034.463 1.034 1.035z" transform="translate(-2.133 -.533) translate(9.6 8)"/>
                </g>
            </g>
        </g>
    </g>
</svg>
