<svg xmlns="http://www.w3.org/2000/svg" width="88" height="38" viewBox="0 0 88 38">
    <path fill="#FF441F" d="M70.91 8.722c.846-.02 1.668.275 2.306.83.653.602 1.106 1.39 1.298 2.258.247 1.102.296 2.24.145 3.359-.192 1.485-.562 2.942-1.104 4.34-.496 1.373-1.133 2.693-1.901 3.936-.342.543-.69 1.048-1.046 1.514-.02.026-.018.062.003.086.02.025.056.032.085.017.202-.113.404-.236.606-.37.466-.303.916-.631 1.347-.983 1.169-.962 2.015-2.257 2.426-3.713.248-.878.518-1.747.821-2.604.492-1.412 1.016-2.729 1.56-3.916.395-.902.84-1.782 1.333-2.635.35-.613.947-1.047 1.638-1.193.608-.139 1.24-.13 1.844.027.55.139 1.046.442 1.42.87.384.406.48 1.007.242 1.514-.07.184-.234.593-.537 1.238-.303.645-.622 1.427-.983 2.296-.36.869-.733 1.81-1.103 2.795-.336.877-.617 1.774-.843 2.686-.176.637-.251 1.296-.225 1.956.04.485.225.485.322.485.293-.038.566-.173.773-.385.411-.346.8-.717 1.164-1.111.41-.438.795-.9 1.153-1.381.327-.442.61-.833.837-1.163.196-.285.52-.454.867-.451.364 0 .704.18.91.478l-.055.018c.185.285.18.652-.015.93-.243.382-.667 1.024-1.298 1.962-.678.996-1.42 1.946-2.223 2.844-.84.955-1.78 1.817-2.805 2.571-.9.716-2.007 1.122-3.157 1.16-.943 0-1.643-.327-2.09-.978-.434-.711-.646-1.536-.606-2.368v-.155c.002-.054-.028-.104-.076-.127-.049-.024-.107-.017-.148.018-.202.16-.405.318-.607.476-1.29.955-2.703 1.734-4.2 2.316-1.458.566-3.011.85-4.576.836-.218 0-.443-.015-.667-.015-1.116-.003-1.944-.358-2.463-1.051-.09-.121-.175-.248-.251-.379-.027-.048-.081-.076-.136-.07-.056.007-.102.047-.116.1-.173.564-.328 1.112-.476 1.633-.322 1.123-.604 2.105-.831 2.97-.227.867-.443 1.706-.607 2.381-.163.675-.279 1.226-.34 1.632v.015c-.079.57-.511 1.025-1.076 1.136-.185.04-.374.061-.564.06-.37-.004-.738-.072-1.086-.2-.584-.215-1.105-.573-1.516-1.041-.461-.519-.708-1.193-.688-1.887.057-.574.169-1.142.333-1.696.219-.908.513-2.025.88-3.33.236-.885.54-1.848.843-2.877.02-.057 0-.119-.048-.154-.048-.036-.113-.036-.161 0-1.137.774-2.358 1.42-3.64 1.922-1.458.566-3.01.85-4.576.836-.218 0-.442-.015-.667-.015-1.116-.003-1.944-.358-2.462-1.051-.092-.121-.176-.248-.252-.379-.027-.049-.08-.076-.136-.07-.056.007-.101.047-.116.1-.172.567-.327 1.112-.476 1.633-.321 1.126-.591 2.101-.83 2.97-.24.87-.459 1.706-.622 2.384-.164.678-.28 1.226-.34 1.632v.015c-.08.57-.512 1.025-1.077 1.136-.184.04-.372.061-.56.06-.371-.004-.738-.072-1.086-.2-.585-.215-1.106-.573-1.517-1.041-.461-.519-.707-1.193-.688-1.887.057-.574.169-1.142.334-1.696.218-.908.515-2.035.88-3.33.214-.773.454-1.594.72-2.48.02-.06-.005-.125-.057-.157-.053-.033-.122-.026-.167.017-.45.415-.921.806-1.413 1.172-.885.72-1.982 1.13-3.123 1.172-.94 0-1.644-.327-2.09-.978-.187-.28-.329-.586-.421-.909-.042-.14-.156-.249-.3-.283-.143-.035-.293.01-.395.117-.307.322-.644.614-1.007.872-.484.343-1.01.623-1.564.835-.603.228-1.243.342-1.887.337-.854.015-1.686-.276-2.344-.821-.681-.583-1.177-1.353-1.425-2.214-.3-1.092-.404-2.23-.303-3.358.115-1.473.41-2.926.879-4.327 1.061-3.262 2.41-5.642 4.11-7.187 1.697-1.544 3.423-2.328 5.124-2.328.635-.024 1.264.125 1.82.433.456.267.83.653 1.082 1.117.166.31.286.643.358.987.007.028.03.048.058.052.028.004.055-.01.07-.033.085-.155.166-.294.245-.421.345-.607.931-1.04 1.614-1.19.607-.14 1.24-.132 1.843.024.561.135 1.066.44 1.447.872.386.406.482 1.008.243 1.514-.07.182-.252.6-.537 1.239-.285.639-.622 1.417-.989 2.298s-.737 1.82-1.104 2.795c-.335.877-.617 1.775-.843 2.686-.175.637-.25 1.297-.224 1.956.04.485.224.485.321.485.294-.037.567-.173.774-.385.212-.187.433-.387.658-.605.85-.811 1.486-1.82 1.853-2.935.518-1.529 1.067-3.04 1.628-4.497.6-1.55 1.186-2.943 1.74-4.136.255-.588.75-1.037 1.36-1.236.559-.187 1.157-.227 1.737-.118.55.098 1.067.335 1.501.688.174.14.325.306.446.493.03.033.064.04.106 0 .505-.469 1.051-.891 1.632-1.263.867-.553 1.878-.842 2.908-.83.845-.02 1.667.277 2.305.83.651.604 1.102 1.392 1.292 2.26.247 1.101.296 2.239.145 3.358-.193 1.485-.563 2.942-1.104 4.34-.496 1.373-1.133 2.693-1.901 3.936-.34.543-.688 1.048-1.043 1.514-.02.026-.018.062.003.086.02.025.056.032.085.017.202-.113.404-.236.606-.37.336-.22.652-.447.95-.684 1.174-.9 2.052-2.133 2.52-3.537.058-.183.119-.366.181-.548.552-1.644 1.134-3.261 1.735-4.815.6-1.553 1.186-2.943 1.74-4.136.255-.588.75-1.038 1.36-1.236.559-.187 1.157-.228 1.737-.118.55.099 1.067.335 1.501.687.18.143.336.315.461.51.03.032.064.038.106 0 .505-.47 1.051-.892 1.632-1.264.867-.553 1.876-.841 2.905-.83zM14.433.969c1.299 0 2.594.15 3.857.448 1.203.274 2.356.731 3.418 1.357.975.573 1.816 1.346 2.469 2.268.644.935.98 2.048.961 3.183.01 1.25-.279 2.483-.843 3.598-.573 1.11-1.341 2.11-2.268 2.95-.998.901-2.114 1.663-3.318 2.264-1.059.534-2.159.98-3.29 1.336-.031.005-.059.022-.077.048-.018.025-.026.057-.02.088.024.572.066 1.133.12 1.678.065.623.153 1.232.256 1.817.103.584.227 1.12.37 1.64.109.404.23.8.364 1.173.084.24.172.472.26.69.176.426.374.843.595 1.248.2.374.421.736.664 1.084.223.318.468.622.73.909.245.266.507.515.786.745.261.215.538.41.828.584.277.164.566.307.864.427.296.117.6.21.91.279.309.068.622.113.937.133.325.024.652.024.977 0 .343-.03.683-.085 1.019-.164.358-.084.71-.193 1.055-.324.373-.14.736-.305 1.089-.49.14-.073.276-.149.415-.227.45-.261 1.025-.138 1.328.285.303.422.235 1.005-.157 1.347-.192.167-.384.33-.577.487-.463.379-.927.73-1.38 1.045-.451.315-.87.575-1.3.82-.216.125-.443.25-.674.364-.434.22-.88.418-1.337.59-.433.162-.876.296-1.325.403-.425.104-.857.179-1.292.225-.302.03-.606.045-.91.045h-.358c-.407-.018-.813-.066-1.213-.145-.197-.04-.394-.085-.588-.14-.194-.054-.38-.112-.57-.184-.373-.136-.735-.3-1.083-.491-.348-.192-.683-.408-1-.648-.264-.198-.516-.41-.756-.636-.298-.285-.579-.589-.84-.908-.27-.327-.52-.67-.752-1.024-.233-.36-.458-.745-.664-1.142-.206-.396-.397-.817-.576-1.253-.179-.436-.337-.888-.485-1.36-.149-.473-.28-.954-.398-1.46-.118-.505-.218-1.03-.303-1.556-.076-.467-.14-.954-.188-1.445-.002-.069-.055-.125-.124-.131-.069-.007-.131.04-.146.107h-.006c-.182.642-.352 1.266-.485 1.86-.202.758-.375 1.44-.519 2.047-.151.605-.257 1.078-.303 1.429-.099.6-.579 1.065-1.183 1.145-.604.106-1.226.054-1.804-.152-.623-.207-1.188-.558-1.65-1.023-.508-.501-.787-1.19-.77-1.902.056-1 .213-1.99.467-2.959.303-1.344.752-2.943 1.322-4.745.57-1.802 1.25-3.761 2.038-5.86.676-1.817 1.435-3.616 2.256-5.405.27-.587.826-.99 1.468-1.063 1.258-.176 2.536-.134 3.779.124.305.072.562.276.7.556.14.281.146.609.019.894-.689 1.536-1.323 3.068-1.89 4.561-.458 1.211-.91 2.405-1.313 3.564-.02.053-.005.111.037.149.041.037.101.045.151.02.565-.264 1.112-.567 1.635-.908.873-.56 1.67-1.23 2.371-1.995.687-.754 1.254-1.609 1.68-2.535.428-.933.647-1.948.643-2.974 0-1.36-.376-2.362-1.119-2.982-.743-.621-1.813-.954-3.163-.954-1.356-.018-2.693.328-3.87 1.002-1.14.654-2.16 1.498-3.017 2.495-.805.933-1.464 1.983-1.953 3.113-.41.881-.644 1.834-.688 2.805.024.53-.324 1.006-.837 1.144-.499.15-1.034.125-1.517-.07-.569-.233-1.06-.623-1.419-1.123-.458-.652-.687-1.439-.649-2.235 0-.811.304-1.768.94-2.922.704-1.234 1.617-2.337 2.7-3.259 1.321-1.12 2.815-2.02 4.424-2.664 1.928-.77 3.99-1.148 6.065-1.115zM51.49 12.325l-.03.003c-.163.023-.317.094-.442.203-.424.327-.802.709-1.125 1.136-.482.62-.92 1.272-1.31 1.953-.479.825-.904 1.68-1.274 2.559-.372.882-.695 1.784-.967 2.701-.235.766-.424 1.544-.567 2.332-.111.542-.142 1.097-.091 1.647.06.464.203.56.245.579.02.004.041.004.061 0 .164-.022.318-.092.443-.2.426-.33.804-.717 1.122-1.15.476-.626.907-1.285 1.289-1.972.44-.779.876-1.645 1.3-2.571.375-.88.701-1.778.977-2.692.232-.76.422-1.533.567-2.314l-.012-.006c.111-.535.142-1.083.091-1.626-.064-.46-.206-.56-.249-.579-.019-.004-.038-.004-.057 0zm17.216-.003l-.03.003c-.163.023-.317.094-.442.203-.42.324-.796.703-1.116 1.127-.483.619-.92 1.271-1.31 1.953-.478.833-.903 1.696-1.27 2.583-.376.878-.703 1.776-.98 2.69-.235.764-.425 1.543-.567 2.33-.112.542-.143 1.098-.091 1.648.06.464.203.56.245.579.02.004.041.004.061 0 .164-.022.318-.092.443-.2.425-.33.803-.717 1.122-1.15.475-.626.905-1.285 1.286-1.972.442-.779.88-1.645 1.304-2.571.37-.882.692-1.782.964-2.699.232-.76.422-1.532.567-2.313.109-.538.14-1.086.088-1.63-.06-.46-.203-.56-.246-.578-.019-.004-.038-.004-.057 0zm-35.993-.081l-.027.002c-.155.023-.3.091-.415.197-.406.33-.76.716-1.053 1.148-.44.625-.832 1.283-1.17 1.968-.391.776-.777 1.642-1.14 2.571-.347.875-.636 1.771-.865 2.683-.193.756-.329 1.526-.406 2.302-.061.547-.054 1.1.021 1.644.079.467.228.57.27.588.019.004.039.004.058 0 .155-.022.3-.09.415-.197.403-.325.759-.705 1.055-1.13.443-.614.835-1.265 1.171-1.944.397-.787.78-1.662 1.14-2.57.346-.876.635-1.772.865-2.684.191-.762.333-1.536.424-2.316.081-.554.075-1.109-.012-1.654-.103-.481-.258-.584-.303-.606-.018-.003-.037-.003-.055 0zM83.281.22c2.123 0 3.845 1.72 3.845 3.84s-1.722 3.84-3.845 3.84c-2.124 0-3.846-1.72-3.846-3.84s1.722-3.84 3.846-3.84z"/>
</svg>
