<svg xmlns="http://www.w3.org/2000/svg" width="24" height="24" viewBox="0 0 24 24">
    <g fill="#332927" fill-rule="evenodd">
        <path d="M11.285 7.923c.48 0 .886.34.98.799l.017.117.36 4.276c.047.55-.361 1.034-.911 1.08-.511.044-.965-.305-1.065-.796l-.016-.116-.285-3.36H4.819L4.076 20h4.185c.513 0 .936.386.994.884L9.26 21c0 .513-.386.936-.883.993L8.261 22h-5.26c-.543 0-.979-.43-1-.959l.002-.114.89-12.077c.036-.482.409-.864.878-.92l.12-.007h7.394zM8.287 10.81c.441 0 .8.359.8.8 0 .408-.306.745-.7.794l-.1.006H6.764c-.442 0-.8-.358-.8-.8 0-.407.305-.744.7-.793l.1-.007h1.523z" opacity=".5"/>
        <path d="M18.973 11.728c1.612 0 2.93 1.26 3.022 2.85l.005.177V21c0 .552-.448 1-1 1-.513 0-.936-.386-.993-.883L20 21v-6.245c0-.53-.4-.965-.915-1.021l-.112-.006h-2.148c-.526 0-.96.396-1.02.907l-.006.11-.01 1.16c-.005.51-.39.928-.884.985l-.116.007h-3.31c-.432 0-.782.35-.782.783 0 .395.294.722.676.774l.106.007h5.115c.258 0 .475-.188.52-.434l.008-.095c0-.552.448-1 1-1s1 .448 1 1c0 1.34-1.044 2.438-2.362 2.524l-.166.005h-5.115c-1.536 0-2.782-1.245-2.782-2.781 0-1.48 1.155-2.69 2.612-2.778l.17-.005h2.318l.002-.168c.013-1.602 1.27-2.905 2.85-2.996l.176-.005h2.148zM17.81 1.999c1.879 0 3.401 1.524 3.401 3.403v1.923c0 1.792-1.39 3.274-3.203 3.396l-.198.006c-1.88 0-3.402-1.523-3.402-3.402V5.402C14.409 3.523 15.93 2 17.81 2zm0 2c-.775 0-1.402.628-1.402 1.403v1.923c0 .775.627 1.402 1.368 1.403l.13-.004c.732-.05 1.305-.66 1.305-1.399V5.402c0-.775-.627-1.403-1.401-1.403z"/>
    </g>
</svg>
