<svg xmlns="http://www.w3.org/2000/svg" width="24" height="24" viewBox="0 0 24 24">
    <g fill="#332927" fill-rule="evenodd">
        <path d="M15.38 15.07c.552 0 1 .448 1 1s-.448 1-1 1H8.62c-.552 0-1-.448-1-1s.448-1 1-1zM12 6.16c2.115 0 3.83 1.715 3.83 3.83s-1.715 3.83-3.83 3.83-3.83-1.715-3.83-3.83S9.885 6.16 12 6.16zm0 2c-1.01 0-1.83.82-1.83 1.83 0 1.01.82 1.83 1.83 1.83 1.01 0 1.83-.82 1.83-1.83 0-1.01-.82-1.83-1.83-1.83z" opacity=".5"/>
        <path d="M12 1.69c5.694 0 10.31 4.616 10.31 10.31 0 5.694-4.616 10.31-10.31 10.31-5.694 0-10.31-4.616-10.31-10.31C1.69 6.306 6.306 1.69 12 1.69zm0 2c-4.59 0-8.31 3.72-8.31 8.31s3.72 8.31 8.31 8.31 8.31-3.72 8.31-8.31S16.59 3.69 12 3.69z"/>
    </g>
</svg>
