<svg xmlns="http://www.w3.org/2000/svg" width="24" height="24" viewBox="0 0 24 24">
    <g fill="#332927" fill-rule="evenodd">
        <path d="M12 15c3.505 0 6.737 1.651 8.801 4.4.332.442.243 1.07-.199 1.4-.442.332-1.068.243-1.4-.198C17.512 18.35 14.869 17 12 17c-2.87 0-5.512 1.35-7.203 3.603-.332.442-.958.531-1.4.2-.442-.332-.531-.959-.2-1.4C5.262 16.652 8.495 15 12 15z" opacity=".5"/>
        <path d="M12 2C8.686 2 6 4.686 6 8s2.686 6 6 6 6-2.686 6-6-2.686-6-6-6zm0 2c2.21 0 4 1.79 4 4s-1.79 4-4 4-4-1.79-4-4 1.79-4 4-4z"/>
    </g>
</svg>
