<svg xmlns="http://www.w3.org/2000/svg" width="24" height="24" viewBox="0 0 24 24">
    <g fill="#332927" fill-rule="evenodd">
        <path d="M14.284 14.403c.552 0 1 .448 1 1 0 .513-.386.935-.884.993l-.116.007-3.001-.001v3.999c0 .513-.385.935-.883.993l-.116.007c-.513 0-.936-.386-.994-.884l-.006-.116v-4.998c0-.513.386-.936.883-.993l.117-.007h4z" opacity=".5"/>
        <path d="M9.583 2h9.983c.479 0 .89.339.982.809l1.128 5.806c.246 1.553-.402 2.937-1.462 3.773l-.001 8.013c0 .513-.386.936-.883.993l-.117.007H5.438c-.513 0-.936-.386-.993-.883l-.007-.117v-8.078c-1.013-.845-1.622-2.207-1.379-3.742l1.122-5.772c.092-.47.503-.81.982-.81zm.533 9.315l-.008.017c-.636 1.128-1.845 1.89-3.232 1.89-.147 0-.294-.01-.438-.027v6.206h11.775v-6.197c-.119.012-.238.018-.359.018-1.394 0-2.609-.77-3.242-1.907-.626.432-1.408.684-2.247.684s-1.621-.253-2.249-.684zM8.583 4H5.987l-.958 4.929c-.192 1.21.696 2.207 1.714 2.288l.133.006c.943 0 1.707-.765 1.707-1.707V3.998zm10.158 0h-2.595v5.515c0 .894.686 1.627 1.56 1.701l.148.007c1.072 0 2.047-1.031 1.852-2.26L18.741 4zm-4.666 0h-3.42v4.65c0 .672.657 1.28 1.55 1.345l.16.005c.974 0 1.71-.639 1.71-1.35v-4.65z"/>
    </g>
</svg>
